<?xml version="1.0" encoding="utf-8"?>
<!-- Generator: Adobe Illustrator 23.0.4, SVG Export Plug-In . SVG Version: 6.00 Build 0)  -->
<svg version="1.1" id="Layer_1" xmlns="http://www.w3.org/2000/svg" xmlns:xlink="http://www.w3.org/1999/xlink" x="0px" y="0px"
	 viewBox="0 0 3355.19 850.39" style="enable-background:new 0 0 3355.19 850.39;" xml:space="preserve">
<style type="text/css">
	.st0{fill:#009D41;}
	.st1{fill:#FFFFFF;}
	.st2{fill:#494543;}
	.st3{fill-rule:evenodd;clip-rule:evenodd;fill:#E31019;}
</style>
<g>
	<path class="st0" d="M3231.85,633.21c0,190.56,0,190.56-190.55,190.56H1825.65c-190.56,0-190.56,0-190.56-190.56V232.74
		c0-190.55,0-190.55,190.56-190.55h1215.64c190.55,0,190.55,0,190.55,190.55V633.21z"/>
	<g>
		<g>
			<path class="st1" d="M1944.83,293.23c26.65,0,52.05,5.43,76.21,16.25c24.14,10.83,45.39,25.41,63.71,43.73
				c18.32,18.32,32.9,39.7,43.72,64.12c10.84,24.45,16.26,50.55,16.26,78.3c0,27.21-5.3,52.88-15.84,77.04
				c-10.54,24.17-24.87,45.4-42.91,63.72c-18.04,18.32-39.28,32.77-63.7,43.29c-24.43,10.57-50.81,15.84-79.12,15.84
				c-27.78,0-53.7-5.02-77.87-15.02c-24.17-9.97-45.39-23.86-63.71-41.64c-18.32-17.75-32.77-38.84-43.32-63.28
				c-10.54-24.43-15.82-51.07-15.82-79.96V187.46c0-7.21,2.49-13.32,7.5-18.33c4.99-4.99,11.09-7.49,18.32-7.49
				c7.19,0,13.32,2.5,18.32,7.49c4.99,5.01,7.47,11.12,7.47,18.33v181.57c18.32-19.99,40.27-37.35,65.83-52.06
				C1885.41,302.26,1913.73,294.35,1944.83,293.23z M1794.06,495.62c0,20.55,3.91,39.84,11.69,57.88
				c7.74,18.05,18.45,33.88,32.05,47.5c13.61,13.59,29.43,24.28,47.5,32.06c18.01,7.78,37.32,11.65,57.87,11.65
				c20.55,0,39.99-3.87,58.31-11.65c18.32-7.78,34.28-18.47,47.89-32.06c13.6-13.61,24.27-29.44,32.05-47.5
				c7.78-18.04,11.66-37.32,11.66-57.88c0-20.53-3.88-39.97-11.66-58.31c-7.78-18.32-18.45-34.29-32.05-47.88
				c-13.61-13.61-29.57-24.29-47.89-32.07c-18.32-7.77-37.75-11.66-58.31-11.66c-19.98,0-38.86,3.75-56.62,11.24
				c-17.78,7.49-33.34,17.9-46.64,31.22c-13.34,13.33-24.14,29.15-32.49,47.48C1799.08,453.99,1794.63,473.97,1794.06,495.62z"/>
			<path class="st1" d="M2370.42,293.23c26.65,0,52.05,5.43,76.19,16.25c24.17,10.83,45.41,25.41,63.74,43.73
				c18.32,18.32,32.9,39.7,43.7,64.12c10.84,24.45,16.26,50.55,16.26,78.3v175.73c0,7.21-2.52,13.32-7.5,18.32
				c-4.99,4.99-11.11,7.5-18.32,7.5c-7.24,0-13.34-2.5-18.32-7.5c-4.99-5.01-7.5-11.11-7.5-18.32v-50.8
				c-18.32,20.54-40.39,38.19-66.21,52.87c-25.82,14.73-53.73,22.1-83.69,22.1c-27.79,0-53.74-5.02-77.9-15.02
				c-24.14-9.97-45.39-23.86-63.71-41.64c-18.32-17.75-32.77-38.84-43.29-63.28c-10.57-24.43-15.84-51.07-15.84-79.96
				c0-27.74,5.12-53.72,15.41-77.87c10.26-24.16,24.41-45.26,42.49-63.31c18.04-18.04,39.41-32.47,64.12-43.3
				C2314.75,300.31,2341.52,294.35,2370.42,293.23z M2219.65,495.62c0,20.55,3.91,39.84,11.66,57.88
				c7.78,18.05,18.45,33.88,32.07,47.5c13.59,13.59,29.41,24.28,47.47,32.06c18.04,7.78,37.35,11.65,57.9,11.65
				c19.97,0,38.84-3.75,56.62-11.24c17.75-7.5,33.44-17.9,47.04-31.23c13.62-13.32,24.43-29.01,32.49-47.07
				c8.04-18.03,12.64-37.89,13.75-59.54c0-20.53-3.91-39.97-11.67-58.31c-7.77-18.32-18.47-34.29-32.07-47.88
				c-13.59-13.61-29.57-24.29-47.89-32.07c-18.32-7.77-37.75-11.66-58.27-11.66c-20.55,0-39.86,3.89-57.9,11.66
				c-18.06,7.78-33.88,18.46-47.47,32.07c-13.62,13.59-24.29,29.56-32.07,47.88C2223.56,455.65,2219.65,475.09,2219.65,495.62z"/>
			<path class="st1" d="M2775.17,670.53c0,7.21-2.48,13.32-7.5,18.3c-4.98,5.02-11.11,7.52-18.32,7.52
				c-25.54-0.54-46.91-5.56-64.12-14.99c-17.21-9.43-31.24-21.11-42.05-34.99c-10.84-13.85-18.61-28.58-23.32-44.13
				c-4.76-15.54-7.08-29.42-7.08-41.65V187.46c0-7.21,2.48-13.32,7.46-18.33c5.02-4.99,11.12-7.49,18.33-7.49
				c7.2,0,13.33,2.5,18.32,7.49c5.01,5.01,7.5,11.12,7.5,18.33v373.12c0,4.45,0.97,11.14,2.91,20c1.95,8.89,5.98,18.05,12.07,27.5
				c6.1,9.43,14.73,17.75,25.82,24.98c11.12,7.21,25.84,11.08,44.14,11.65c7.21,0,13.34,2.48,18.32,7.5
				C2772.69,657.19,2775.17,663.32,2775.17,670.53z"/>
			<path class="st1" d="M2820.17,519.78c2.76,17.78,8.58,34.29,17.47,49.56c8.89,15.29,19.84,28.47,32.9,39.57
				c13.02,11.1,27.92,19.85,44.56,26.21c16.66,6.41,34.13,9.59,52.47,9.59c20.54,0,39.69-3.75,57.47-11.24
				c17.76-7.5,33.6-17.9,47.48-31.23c4.98-4.99,11.08-7.5,18.32-7.5c7.21,0,13.3,2.5,18.32,7.5c4.98,4.99,7.5,11.12,7.5,18.32
				c0,7.23-2.52,13.33-7.5,18.31c-18.32,20.56-39.02,35.13-62.06,43.74c-23.05,8.61-49.54,12.92-79.54,12.92
				c-27.77,0-53.71-5.02-77.88-15.02c-24.14-9.97-45.39-23.86-63.71-41.64c-18.32-17.75-32.74-38.84-43.32-63.28
				c-10.54-24.43-15.82-51.07-15.82-79.96c0-27.74,5.15-53.72,15.44-77.87c10.26-24.16,24.43-45.26,42.46-63.31
				c18.02-18.04,39.41-32.47,64.12-43.3c24.71-10.83,51.5-16.79,80.38-17.91c26.65,0,51.76,5.28,75.36,15.83
				c23.6,10.56,44.56,24.7,62.88,42.47c18.32,17.79,32.9,38.61,43.72,62.46c10.84,23.88,16.81,49.45,17.92,76.64
				c1.11,9.45-1.24,16.66-7.08,21.66c-5.84,4.98-12.07,7.48-18.74,7.48H2820.17z M2967.57,345.71c-18.34,0-35.67,3.21-52.06,9.57
				c-16.39,6.39-31.1,14.99-44.14,25.82c-13.06,10.83-23.86,23.74-32.49,38.72c-8.61,15.01-14.55,31.12-17.88,48.33h293.99
				c-3.34-17.21-9.44-33.33-18.33-48.33c-8.89-14.97-19.84-27.88-32.87-38.72c-13.07-10.83-27.78-19.43-44.17-25.82
				C3003.23,348.91,2985.89,345.71,2967.57,345.71z"/>
		</g>
	</g>
	<g>
		<path class="st2" d="M411.83,583.91c15.54,0,28.73,5.56,39.57,16.66c10.84,11.11,16.25,24.16,16.25,39.12
			c0,16.13-5.4,29.57-16.25,40.43c-10.83,10.8-24.03,16.23-39.57,16.23H173.65c-14.45,0-27.35-5.43-38.74-16.23
			c-11.39-10.86-17.07-24.3-17.07-40.43V220.77c0-14.42,5.27-27.48,15.83-39.14c10.53-11.65,23.86-17.48,39.98-17.48h238.18
			c15.54,0,28.73,5.56,39.57,16.66c10.84,11.12,16.25,24.44,16.25,39.97c0,16.11-5.4,29.44-16.25,39.99
			c-10.83,10.55-24.03,15.81-39.57,15.81h-183.2v94.96h127.41c14.97,0,28.03,5.54,39.14,16.65c11.1,11.13,16.65,24.45,16.65,39.98
			c0,15.56-5.54,28.75-16.65,39.57c-11.12,10.84-24.17,16.25-39.14,16.25H228.63v99.94H411.83z"/>
		<path class="st2" d="M708.34,292.4c27.19,0,53.15,5.41,77.88,16.24c24.7,10.83,46.21,25.39,64.54,43.72
			c18.32,18.32,32.89,39.71,43.73,64.14c10.82,24.44,16.23,50.27,16.23,77.47v279.01c-0.56,14.43-6.25,26.49-17.07,36.21
			c-10.83,9.72-23.18,14.57-37.06,14.57c-15.54,0-28.59-5.28-39.16-15.82c-10.54-10.54-15.8-23.06-15.8-37.5V674.7
			c-27.79,13.87-58.86,20.83-93.29,20.83c-28.31,0-54.83-5.28-79.54-15.84c-24.72-10.52-46.1-24.97-64.12-43.29
			c-18.05-18.32-32.21-39.69-42.49-64.13c-10.27-24.43-15.4-50.53-15.4-78.28c0-27.76,5.27-53.87,15.83-78.32
			c10.54-24.42,24.98-45.79,43.3-64.12c18.33-18.32,39.7-32.75,64.12-43.3C654.46,297.69,680.57,292.4,708.34,292.4z M801.63,493.97
			c0-12.79-2.38-24.71-7.08-35.82c-4.73-11.1-11.24-20.84-19.57-29.16c-8.34-8.32-18.2-15-29.56-19.99c-11.4-5-23.75-7.5-37.08-7.5
			c-12.78,0-24.7,2.37-35.82,7.07c-11.1,4.74-20.82,11.24-29.14,19.57c-8.32,8.32-14.99,18.21-19.99,29.58
			c-4.99,11.38-7.51,23.45-7.51,36.24c0,12.77,2.36,24.84,7.08,36.21c4.73,11.39,11.25,21.38,19.59,30
			c8.32,8.61,18.03,15.4,29.14,20.39c11.1,4.99,23.31,7.51,36.64,7.51c12.21,0,24.01-2.37,35.39-7.09
			c11.37-4.72,21.36-11.24,29.98-19.57c8.61-8.32,15.42-18.19,20.41-29.57C799.12,520.48,801.63,507.84,801.63,493.97z"/>
		<path class="st2" d="M1018.15,292.4c14.44,0,27.21,5.41,38.33,16.24c11.11,10.83,16.64,24.02,16.64,39.56v146.6
			c0,12.77,2.51,24.86,7.5,36.21c5.01,11.41,11.68,21.25,20.01,29.57c8.32,8.34,18.17,15.01,29.57,20
			c11.37,4.99,23.44,7.51,36.23,7.51c12.2,0,23.85-2.22,34.97-6.67c11.11-4.45,20.96-10.54,29.57-18.32
			c8.61-7.77,15.4-17.2,20.42-28.32c4.99-11.11,7.47-23.03,7.47-35.82V347.36c0-13.86,5.27-26.36,15.84-37.46
			c10.52-11.1,23.31-16.94,38.3-17.5c14.99,0,27.91,5.41,38.72,16.24c10.85,10.83,16.51,22.9,17.08,36.22V494.8
			c0,27.77-5.27,53.86-15.81,78.28c-10.57,24.44-24.99,45.81-43.32,64.13c-18.32,18.32-39.7,32.77-64.12,43.29
			c-24.45,10.57-50.81,15.84-79.11,15.84c-26.67,1.11-52.21-3.46-76.63-13.75c-24.42-10.26-45.95-24.43-64.56-42.47
			c-18.61-18.04-33.44-39.14-44.56-63.29c-11.12-24.17-16.65-49.56-16.65-76.23V347.36c0-14.42,5.12-27.06,15.41-37.88
			C989.69,298.65,1002.61,292.96,1018.15,292.4z"/>
		<path class="st2" d="M1478.73,295.74c14.42,0,26.52,5.28,36.23,15.81c9.69,10.56,15.12,23.33,16.23,38.32v294.84
			c0,14.99-4.73,27.47-14.16,37.47c-9.43,10.01-22.2,15.54-38.3,16.65c-14.45,0-26.65-4.41-36.65-13.3
			c-10-8.89-16.12-21.38-18.32-37.51V346.53c1.11-14.43,6.95-26.36,17.5-35.81C1451.78,301.29,1464.28,296.29,1478.73,295.74z"/>
		<path class="st3" d="M1477.48,94.65c-44.3,0-80.23,35.91-80.23,80.22s35.93,80.23,80.23,80.23c44.3,0,80.22-35.92,80.22-80.23
			S1521.78,94.65,1477.48,94.65z M1477.48,234.19c-32.76,0-59.32-26.55-59.32-59.32c0-32.75,26.55-59.31,59.32-59.31
			c32.75,0,59.31,26.56,59.31,59.31C1536.79,207.63,1510.23,234.19,1477.48,234.19z"/>
	</g>
</g>
</svg>
